# xmcd
#
# Track frame offsets:
# 150
# 12300
# 26187
# 33530
# 47177
# 63095
# 76785
# 94702
# 104507
# 113050
# 118855
# 130875
# 144127
# 156022
# 163917
# 177400
# 203722
# 218897
# 234220
# 248747
# 276560
# 287632
# 302160
# 319720
# 335300
#
# Disc length: 4506 seconds
#
#
# Revision: 4
# Processed by: cddbd v1.5.2PL0 Copyright (c) Steve Scherf et al.
# Submitted via: FreeRIP 2.951 
#
DISCID=62119819,64119819
DTITLE=Johnny Cash - At Folsom Prison and San Quentin
DYEAR=1976
DGENRE=Country
TTITLE0=Folsom Prison Blues #1
TTITLE1=Dark as the Dungeon
TTITLE2=I Still Miss Someone
TTITLE3=Cocaine Blues
TTITLE4=25 Minutes to Go
TTITLE5=Orange Blossom Special
TTITLE6=The Long Black Veil
TTITLE7=Send a Picture of Mother
TTITLE8=The Wall
TTITLE9=Dirty Old Egg-Sucking Dog
TTITLE10=Flushed from the Bathroom of Your Heart
TTITLE11=Jackson (with June Carter)
TTITLE12=Give My Love to Rose (with June Carter)
TTITLE13=I Got Stripes
TTITLE14=Green, Green Grass of Home
TTITLE15=Greystone Chapel
TTITLE16=Wanted Man
TTITLE17=Wreck of the Old '97
TTITLE18=I Walk the Line
TTITLE19=Darlin' Companion
TTITLE20=Starkville City Jail
TTITLE21=San Quentin
TTITLE22=A Boy Named Sue
TTITLE23=(There'll Be) Peace in the Valley
TTITLE24=Folsom Prison Blues #2
EXTD=
EXTT0=
EXTT1=
EXTT2=
EXTT3=
EXTT4=
EXTT5=
EXTT6=
EXTT7=
EXTT8=
EXTT9=
EXTT10=
EXTT11=
EXTT12=
EXTT13=echt stark
EXTT14=
EXTT15=
EXTT16=
EXTT17=
EXTT18=
EXTT19=
EXTT20=
EXTT21=
EXTT22=
EXTT23=
EXTT24=
PLAYORDER=
